<svg height='100px' width='100px'  fill="#000000" xmlns="http://www.w3.org/2000/svg" xmlns:xlink="http://www.w3.org/1999/xlink" version="1.1" x="0px" y="0px" viewBox="0 0 100 100" style="enable-background:new 0 0 100 100;" xml:space="preserve"><path d="M89.578,88.1c-10.712-5.163-21.051-7.711-30.523-8.641V53.538h12.26c3.722,0,6.75-3.028,6.75-6.75v-1.599  c0-0.552-0.448-1-1-1H55.682v-20.39c0-0.115-0.03-0.221-0.065-0.324c1.422-1.41,2.306-3.363,2.306-5.52  c0-4.289-3.489-7.778-7.778-7.778c-4.289,0-7.778,3.489-7.778,7.778c0,2.156,0.883,4.11,2.306,5.52  c-0.036,0.103-0.065,0.209-0.065,0.324v20.39H23.224c-0.552,0-1,0.448-1,1v1.599c0,3.722,3.028,6.75,6.749,6.75h12.26v25.946  c-18.274,1.824-30.393,8.529-30.602,8.647c-0.48,0.272-0.648,0.882-0.376,1.363c0.272,0.48,0.881,0.647,1.363,0.377  c0.354-0.2,35.89-19.826,77.092,0.031C88.85,89.969,88.998,90,89.144,90c0.372,0,0.729-0.208,0.901-0.566  C90.285,88.937,90.076,88.339,89.578,88.1z M46.606,28.959l7.021,7.021c0.016,0.016,0.038,0.021,0.055,0.036v6.169l-7.039-7.039  c-0.011-0.011-0.025-0.014-0.037-0.024V28.959z M44.366,17.956c0-3.186,2.592-5.778,5.778-5.778s5.778,2.592,5.778,5.778  s-2.592,5.778-5.778,5.778S44.366,21.142,44.366,17.956z M50.144,25.733c1.275,0,2.475-0.314,3.538-0.86v8.333l-7.039-7.039  c-0.011-0.011-0.025-0.014-0.037-0.024v-1.269C47.669,25.419,48.87,25.733,50.144,25.733z M46.606,37.938l6.252,6.252h-6.252V37.938  z M24.224,46.788v-0.599h51.84v0.599c0,2.619-2.131,4.75-4.75,4.75H28.973C26.354,51.538,24.224,49.407,24.224,46.788z   M43.233,53.538h13.822v25.748c-2.013-0.152-3.987-0.235-5.911-0.253V61.436c0-0.552-0.448-1-1-1s-1,0.448-1,1v17.601  c-2.028,0.026-4.001,0.119-5.911,0.268V53.538z"></path></svg>